<mxfile host="app.diagrams.net" agent="Mozilla/5.0 (Windows NT 10.0; Win64; x64) AppleWebKit/537.36 (KHTML, like Gecko) Chrome/133.0.0.0 Safari/537.36" version="26.0.16">
  <diagram id="R2lEEEUBdFMjLlhIrx00" name="Page-1">
    <mxGraphModel dx="1900" dy="530" grid="1" gridSize="10" guides="1" tooltips="1" connect="1" arrows="1" fold="1" page="1" pageScale="1" pageWidth="850" pageHeight="1100" math="0" shadow="0" extFonts="Permanent Marker^https://fonts.googleapis.com/css?family=Permanent+Marker">
      <root>
        <mxCell id="0" />
        <mxCell id="1" parent="0" />
        <mxCell id="DpKgXlzEt9rv9LNPnmNo-11" style="edgeStyle=none;rounded=0;orthogonalLoop=1;jettySize=auto;html=1;exitX=0;exitY=0.75;exitDx=0;exitDy=0;endArrow=none;startFill=0;" edge="1" parent="1" source="DpKgXlzEt9rv9LNPnmNo-1" target="DpKgXlzEt9rv9LNPnmNo-10">
          <mxGeometry relative="1" as="geometry" />
        </mxCell>
        <mxCell id="DpKgXlzEt9rv9LNPnmNo-13" style="edgeStyle=none;rounded=0;orthogonalLoop=1;jettySize=auto;html=1;exitX=0.25;exitY=1;exitDx=0;exitDy=0;endArrow=none;startFill=0;" edge="1" parent="1" source="DpKgXlzEt9rv9LNPnmNo-1" target="DpKgXlzEt9rv9LNPnmNo-12">
          <mxGeometry relative="1" as="geometry" />
        </mxCell>
        <object label="Restaurant" id="DpKgXlzEt9rv9LNPnmNo-1">
          <mxCell style="rounded=0;whiteSpace=wrap;html=1;shadow=0;" vertex="1" parent="1">
            <mxGeometry x="365" y="240" width="120" height="60" as="geometry" />
          </mxCell>
        </object>
        <mxCell id="DpKgXlzEt9rv9LNPnmNo-7" style="edgeStyle=none;rounded=0;orthogonalLoop=1;jettySize=auto;html=1;exitX=1;exitY=1;exitDx=0;exitDy=0;entryX=0.25;entryY=0;entryDx=0;entryDy=0;endArrow=none;startFill=0;" edge="1" parent="1" source="DpKgXlzEt9rv9LNPnmNo-4" target="DpKgXlzEt9rv9LNPnmNo-1">
          <mxGeometry relative="1" as="geometry" />
        </mxCell>
        <mxCell id="DpKgXlzEt9rv9LNPnmNo-4" value="Restaurant ID" style="ellipse;whiteSpace=wrap;html=1;fontStyle=4" vertex="1" parent="1">
          <mxGeometry x="150" y="110" width="120" height="80" as="geometry" />
        </mxCell>
        <mxCell id="DpKgXlzEt9rv9LNPnmNo-9" style="edgeStyle=none;rounded=0;orthogonalLoop=1;jettySize=auto;html=1;endArrow=none;startFill=0;entryX=0;entryY=0.5;entryDx=0;entryDy=0;" edge="1" parent="1" source="DpKgXlzEt9rv9LNPnmNo-8" target="DpKgXlzEt9rv9LNPnmNo-1">
          <mxGeometry relative="1" as="geometry">
            <mxPoint x="360" y="270" as="targetPoint" />
          </mxGeometry>
        </mxCell>
        <mxCell id="DpKgXlzEt9rv9LNPnmNo-8" value="Name" style="ellipse;whiteSpace=wrap;html=1;" vertex="1" parent="1">
          <mxGeometry x="150" y="200" width="120" height="80" as="geometry" />
        </mxCell>
        <mxCell id="DpKgXlzEt9rv9LNPnmNo-10" value="Location" style="ellipse;whiteSpace=wrap;html=1;" vertex="1" parent="1">
          <mxGeometry x="150" y="290" width="120" height="80" as="geometry" />
        </mxCell>
        <mxCell id="DpKgXlzEt9rv9LNPnmNo-12" value="Open hour" style="ellipse;whiteSpace=wrap;html=1;" vertex="1" parent="1">
          <mxGeometry x="150" y="390" width="120" height="80" as="geometry" />
        </mxCell>
        <mxCell id="DpKgXlzEt9rv9LNPnmNo-14" value="Open time" style="ellipse;whiteSpace=wrap;html=1;" vertex="1" parent="1">
          <mxGeometry x="-50" y="330" width="120" height="80" as="geometry" />
        </mxCell>
        <mxCell id="DpKgXlzEt9rv9LNPnmNo-15" value="Close time" style="ellipse;whiteSpace=wrap;html=1;" vertex="1" parent="1">
          <mxGeometry x="-50" y="450" width="120" height="80" as="geometry" />
        </mxCell>
        <mxCell id="DpKgXlzEt9rv9LNPnmNo-16" style="edgeStyle=none;rounded=0;orthogonalLoop=1;jettySize=auto;html=1;exitX=1;exitY=0;exitDx=0;exitDy=0;entryX=0.017;entryY=0.68;entryDx=0;entryDy=0;entryPerimeter=0;endArrow=none;startFill=0;" edge="1" parent="1" source="DpKgXlzEt9rv9LNPnmNo-15" target="DpKgXlzEt9rv9LNPnmNo-12">
          <mxGeometry relative="1" as="geometry" />
        </mxCell>
        <mxCell id="DpKgXlzEt9rv9LNPnmNo-17" style="edgeStyle=none;rounded=0;orthogonalLoop=1;jettySize=auto;html=1;exitX=1;exitY=0.5;exitDx=0;exitDy=0;entryX=0.003;entryY=0.33;entryDx=0;entryDy=0;entryPerimeter=0;endArrow=none;startFill=0;" edge="1" parent="1" source="DpKgXlzEt9rv9LNPnmNo-14" target="DpKgXlzEt9rv9LNPnmNo-12">
          <mxGeometry relative="1" as="geometry" />
        </mxCell>
        <mxCell id="DpKgXlzEt9rv9LNPnmNo-18" value="Driver" style="rounded=0;whiteSpace=wrap;html=1;" vertex="1" parent="1">
          <mxGeometry x="560" y="90" width="120" height="60" as="geometry" />
        </mxCell>
        <mxCell id="DpKgXlzEt9rv9LNPnmNo-19" value="Serve" style="rhombus;whiteSpace=wrap;html=1;" vertex="1" parent="1">
          <mxGeometry x="390" y="80" width="80" height="80" as="geometry" />
        </mxCell>
      </root>
    </mxGraphModel>
  </diagram>
</mxfile>
